<svg width="20" height="20" viewBox="0 0 20 20" fill="none" xmlns="http://www.w3.org/2000/svg">
<path d="M17.5 6.66667C16.25 6.66667 15.5833 7.83333 15.9167 8.75L12.9167 11.75C12.6667 11.6667 12.3333 11.6667 12.0833 11.75L9.91668 9.58333C10.25 8.66667 9.58334 7.5 8.33334 7.5C7.16668 7.5 6.41668 8.66667 6.75001 9.58333L2.91668 13.3333C2.00001 13.0833 0.833344 13.75 0.833344 15C0.833344 15.9167 1.58334 16.6667 2.50001 16.6667C3.66668 16.6667 4.41668 15.5 4.08334 14.5833L7.83334 10.75C8.08334 10.8333 8.41668 10.8333 8.66668 10.75L10.8333 12.9167C10.5833 13.75 11.25 15 12.5 15C13.75 15 14.4167 13.8333 14.0833 12.9167L17.0833 9.91667C18 10.1667 19.1667 9.5 19.1667 8.33333C19.1667 7.41667 18.4167 6.66667 17.5 6.66667ZM12.5 7.5L13.25 5.75L15 5L13.25 4.25L12.5 2.5L11.75 4.25L10 5L11.75 5.75L12.5 7.5ZM2.91668 9.16667L3.33334 7.5L5.00001 7.08333L3.33334 6.66667L2.91668 5L2.50001 6.66667L0.833344 7.08333L2.50001 7.5L2.91668 9.16667Z" fill="black"/>
</svg>
