<svg width="17" height="14" viewBox="0 0 17 14" fill="none" xmlns="http://www.w3.org/2000/svg">
<path d="M0.120613 0.683978C0.222088 0.479309 0.382307 0.306373 0.582633 0.185289C0.782958 0.0642049 1.01515 -4.98871e-05 1.25221 2.90608e-08H14.7761C15.2614 2.90608e-08 15.6996 0.266174 15.9062 0.683978C16.116 1.10178 16.0503 1.59615 15.7184 1.95384L10.0177 8.6402V12.4414C10.0177 12.8033 9.80483 13.1353 9.4636 13.2968C9.12551 13.4583 8.71854 13.4254 8.41488 13.207L6.41133 11.7715C6.15776 11.592 6.01062 11.3079 6.01062 11.0059V8.6402L0.283057 1.95384C0.132946 1.77856 0.0379953 1.56618 0.00924471 1.34139C-0.0195059 1.1166 0.0191245 0.888625 0.120645 0.683978H0.120613Z" fill="#C5C5C5"/>
</svg>
