<svg width="22" height="20" viewBox="0 0 22 20" fill="none" xmlns="http://www.w3.org/2000/svg">
<path fill-rule="evenodd" clip-rule="evenodd" d="M11 3C6 3 1.73 6.11 0 10.5C1.73 14.89 6 18 11 18C16 18 20.27 14.89 22 10.5C20.27 6.11 16 3 11 3ZM11 15.5C8.24 15.5 6 13.26 6 10.5C6 7.74 8.24 5.5 11 5.5C13.76 5.5 16 7.74 16 10.5C16 13.26 13.76 15.5 11 15.5ZM11 7.5C9.34 7.5 8 8.84 8 10.5C8 12.16 9.34 13.5 11 13.5C12.66 13.5 14 12.16 14 10.5C14 8.84 12.66 7.5 11 7.5Z" fill="black" fill-opacity="0.6"/>
<ellipse cx="2.35012" cy="1.93591" rx="1" ry="0.909363" transform="rotate(-45 2.35012 1.93591)" fill="#626262"/>
<ellipse cx="19.0689" cy="18.6542" rx="1" ry="0.909363" transform="rotate(-45 19.0689 18.6542)" fill="#626262"/>
<line x1="2.34968" y1="1.93596" x2="19.0681" y2="18.6544" stroke="#626262" stroke-width="2"/>
</svg>
