<svg width="22" height="16" viewBox="0 0 22 16" fill="none" xmlns="http://www.w3.org/2000/svg">
<path fill-rule="evenodd" clip-rule="evenodd" d="M11 0.423828C6 0.423828 1.73 3.53383 0 7.92383C1.73 12.3138 6 15.4238 11 15.4238C16 15.4238 20.27 12.3138 22 7.92383C20.27 3.53383 16 0.423828 11 0.423828ZM11 12.9238C8.24 12.9238 6 10.6838 6 7.92383C6 5.16383 8.24 2.92383 11 2.92383C13.76 2.92383 16 5.16383 16 7.92383C16 10.6838 13.76 12.9238 11 12.9238ZM11 4.92383C9.34 4.92383 8 6.26383 8 7.92383C8 9.58383 9.34 10.9238 11 10.9238C12.66 10.9238 14 9.58383 14 7.92383C14 6.26383 12.66 4.92383 11 4.92383Z" fill="black" fill-opacity="0.6"/>
</svg>
