<svg width="22" height="23" viewBox="0 0 22 23" fill="none" xmlns="http://www.w3.org/2000/svg">
<path d="M9.636 0.0880127V9.63601H0.0879974C0.263997 8.14001 0.747998 6.75401 1.474 5.50001C3.168 2.59601 6.138 0.528013 9.636 0.0880127Z" fill="white"/>
<path d="M21.912 9.63601H12.386V0.0880127C15.884 0.528013 18.854 2.59601 20.548 5.50001C21.252 6.73201 21.736 8.14001 21.912 9.63601Z" fill="white"/>
<path d="M21.912 12.386C21.736 13.882 21.252 15.268 20.526 16.522C18.832 19.426 15.862 21.494 12.364 21.934V12.386H21.912Z" fill="white"/>
<path d="M9.636 12.386V21.934C6.138 21.494 3.168 19.426 1.474 16.522C0.747998 15.29 0.263997 13.882 0.0879974 12.386H9.636Z" fill="white"/>
<path d="M22 11C22 11.462 21.978 11.924 21.912 12.386H12.386V21.934C11.946 22 11.484 22.022 11 22.022C10.538 22.022 10.076 22 9.614 21.934V12.386H0.0879999C0.0219999 11.946 0 11.484 0 11C0 10.516 0.0219999 10.076 0.0879999 9.614H9.636V0.0879999C10.098 0.0219999 10.538 0 11.022 0C11.484 0 11.946 0.0219999 12.408 0.0879999V9.636H21.956C21.978 10.076 22 10.538 22 11Z" fill="#231F20"/>
<path d="M22 11C22 11.462 21.978 11.924 21.912 12.386H12.386V21.934C11.946 22 11.484 22.022 11 22.022C10.538 22.022 10.076 22 9.614 21.934V12.386H0.0879999C0.0219999 11.946 0 11.484 0 11C0 10.516 0.0219999 10.076 0.0879999 9.614H9.636V0.0879999C10.098 0.0219999 10.538 0 11.022 0C11.484 0 11.946 0.0219999 12.408 0.0879999V9.636H21.956C21.978 10.076 22 10.538 22 11Z" fill="#E71D2E"/>
<path d="M7.062 5.85199V6.16H5.852V7.39199H5.544V6.16H4.312V5.85199H5.544V4.62H5.852V5.85199H7.062Z" fill="#E71D2E"/>
<path d="M7.062 15.95V16.258H5.852V17.49H5.544V16.258H4.312V15.95H5.544V14.718H5.852V15.95H7.062Z" fill="#E71D2E"/>
<path d="M18.524 15.95V16.258H17.292V17.49H16.984V16.258H15.774V15.95H16.984V14.718H17.292V15.95H18.524Z" fill="#E71D2E"/>
<path d="M18.524 5.85199V6.16H17.292V7.39199H16.984V6.16H15.774V5.85199H16.984V4.62H17.292V5.85199H18.524Z" fill="#E71D2E"/>
</svg>
