<svg width="17" height="19" viewBox="0 0 17 19" fill="none" xmlns="http://www.w3.org/2000/svg">
<path d="M0.75 0.875V17.125H10.75V15.875H2V2.125H8.25V5.875H12V7.125H13.25V5L13.0625 4.8125L9.3125 1.0625L9.125 0.875H0.75ZM9.5 3L11.125 4.625H9.5V3ZM3.25 7.125V8.375H10.75V7.125H3.25ZM13.875 8.375V9.625C12.8125 9.8125 12 10.6875 12 11.8125C12 13.0625 12.9375 14 14.1875 14H14.8125C15.3125 14 15.75 14.4375 15.75 14.9375C15.75 15.4375 15.3125 15.875 14.8125 15.875H12.625V17.125H13.875V18.375H15.125V17.125C16.1875 16.9375 17 16.0625 17 14.9375C17 13.6875 16.0625 12.75 14.8125 12.75H14.1875C13.6875 12.75 13.25 12.3125 13.25 11.8125C13.25 11.3125 13.6875 10.875 14.1875 10.875H16.375V9.625H15.125V8.375H13.875ZM3.25 10.25V11.5H7.625V10.25H3.25ZM8.875 10.25V11.5H10.75V10.25H8.875ZM3.25 12.75V14H7.625V12.75H3.25ZM8.875 12.75V14H10.75V12.75H8.875Z" fill="black"/>
</svg>
