<svg width="20" height="25" viewBox="0 0 20 25" fill="none" xmlns="http://www.w3.org/2000/svg">
<path d="M9.6 0.423828C6.2916 0.423828 3.6 3.11543 3.6 6.42383V8.82383H2.4C1.0764 8.82383 0 9.90023 0 11.2238V22.0238C0 23.3474 1.0764 24.4238 2.4 24.4238H16.8C18.1236 24.4238 19.2 23.3474 19.2 22.0238V11.2238C19.2 9.90023 18.1236 8.82383 16.8 8.82383H15.6V6.42383C15.6 3.11543 12.9084 0.423828 9.6 0.423828ZM6 6.42383C6 4.43903 7.6152 2.82383 9.6 2.82383C11.5848 2.82383 13.2 4.43903 13.2 6.42383V8.82383H6V6.42383ZM16.8024 22.0238H10.8V19.2902C11.514 18.8738 12 18.1082 12 17.2238C12 15.9002 10.9236 14.8238 9.6 14.8238C8.2764 14.8238 7.2 15.9002 7.2 17.2238C7.2 18.107 7.686 18.8738 8.4 19.2902V22.0238H2.4V11.2238H16.8L16.8024 22.0238Z" fill="#6B6E7F"/>
</svg>
