<svg width="358" height="60" viewBox="0 0 358 60" fill="none" xmlns="http://www.w3.org/2000/svg">
<path d="M80.1978 46.0715V41.683H84.5052V18.4601H80.1978V14.0715H96.4653C98.3899 14.0715 100.07 14.4068 101.506 15.0772C102.942 15.7172 104.057 16.6468 104.851 17.8658C105.676 19.0544 106.088 20.4715 106.088 22.1172V22.5744C106.088 24.0372 105.813 25.2411 105.263 26.1858C104.714 27.1306 104.042 27.862 103.247 28.3801C102.484 28.8982 101.75 29.2639 101.048 29.4772V30.2087C101.75 30.3915 102.499 30.7572 103.293 31.3058C104.118 31.8239 104.805 32.5554 105.355 33.5001C105.935 34.4449 106.226 35.6791 106.226 37.203V37.6601C106.226 39.4276 105.813 40.9362 104.989 42.1858C104.164 43.4355 103.018 44.3955 101.552 45.0658C100.116 45.7362 98.4511 46.0715 96.5569 46.0715H80.1978ZM89.5 41.5915H95.9612C97.6109 41.5915 98.9093 41.1955 99.8562 40.403C100.803 39.6105 101.277 38.5133 101.277 37.1115V36.7001C101.277 35.2982 100.803 34.2011 99.8562 33.4087C98.9398 32.6163 97.6413 32.2201 95.9612 32.2201H89.5V41.5915ZM89.5 27.6944H95.9612C97.5192 27.6944 98.7719 27.3134 99.7188 26.5515C100.666 25.7591 101.139 24.6925 101.139 23.3515V22.8944C101.139 21.5534 100.666 20.502 99.7188 19.7401C98.8023 18.9477 97.5497 18.5515 95.9612 18.5515H89.5V27.6944ZM111.912 46.0715V23.5344H116.632V46.0715H111.912ZM114.295 20.4715C113.378 20.4715 112.599 20.182 111.958 19.603C111.347 18.9934 111.041 18.2163 111.041 17.2715C111.041 16.3268 111.347 15.5649 111.958 14.9858C112.599 14.3763 113.378 14.0715 114.295 14.0715C115.242 14.0715 116.021 14.3763 116.632 14.9858C117.243 15.5649 117.548 16.3268 117.548 17.2715C117.548 18.2163 117.243 18.9934 116.632 19.603C116.021 20.182 115.242 20.4715 114.295 20.4715ZM123.636 46.0715V23.5344H128.265V26.9172H128.998C129.426 26.003 130.189 25.1496 131.289 24.3572C132.389 23.5649 134.023 23.1687 136.192 23.1687C137.903 23.1687 139.415 23.5496 140.729 24.3115C142.073 25.0734 143.127 26.1554 143.891 27.5572C144.654 28.9287 145.036 30.5896 145.036 32.5401V46.0715H140.316V32.9058C140.316 30.9554 139.828 29.523 138.85 28.6087C137.872 27.6639 136.528 27.1915 134.817 27.1915C132.862 27.1915 131.289 27.8315 130.098 29.1115C128.937 30.3915 128.356 32.2506 128.356 34.6887V46.0715H123.636ZM158.84 46.7115C157.221 46.7115 155.77 46.4372 154.487 45.8887C153.234 45.3401 152.226 44.5326 151.462 43.4658C150.729 42.399 150.363 41.104 150.363 39.5801C150.363 38.0258 150.729 36.7458 151.462 35.7401C152.226 34.7039 153.249 33.9268 154.533 33.4087C155.846 32.8906 157.328 32.6315 158.977 32.6315H165.851V31.1687C165.851 29.8582 165.454 28.8068 164.66 28.0144C163.865 27.222 162.643 26.8258 160.994 26.8258C159.374 26.8258 158.137 27.2068 157.282 27.9687C156.427 28.7306 155.861 29.7211 155.586 30.9401L151.187 29.523C151.554 28.3039 152.134 27.2068 152.929 26.2315C153.753 25.2258 154.838 24.4182 156.182 23.8087C157.526 23.1991 159.145 22.8944 161.04 22.8944C163.972 22.8944 166.279 23.6411 167.959 25.1344C169.639 26.6277 170.479 28.7458 170.479 31.4887V40.7687C170.479 41.683 170.907 42.1401 171.762 42.1401H173.687V46.0715H170.158C169.089 46.0715 168.218 45.7972 167.547 45.2487C166.875 44.7001 166.538 43.9533 166.538 43.0087V42.8715H165.851C165.607 43.3287 165.24 43.8619 164.751 44.4715C164.263 45.0812 163.544 45.6144 162.598 46.0715C161.651 46.4983 160.398 46.7115 158.84 46.7115ZM159.527 42.8258C161.422 42.8258 162.949 42.2926 164.11 41.2258C165.271 40.1287 165.851 38.6355 165.851 36.7458V36.2887H159.252C158 36.2887 156.992 36.563 156.228 37.1115C155.464 37.6297 155.082 38.4069 155.082 39.443C155.082 40.479 155.479 41.3019 156.274 41.9115C157.068 42.5212 158.153 42.8258 159.527 42.8258ZM178.276 46.0715V23.5344H182.904V26.1858H183.638C184.004 25.2411 184.584 24.5554 185.379 24.1287C186.204 23.6715 187.212 23.443 188.403 23.443H191.107V27.6944H188.22C186.692 27.6944 185.44 28.1211 184.462 28.9744C183.485 29.7972 182.996 31.0772 182.996 32.8144V46.0715H178.276ZM198.609 55.2144V51.1001H211.211C212.066 51.1001 212.494 50.643 212.494 49.7287V42.7801H211.761C211.486 43.3897 211.058 43.984 210.478 44.563C209.928 45.1115 209.179 45.5687 208.232 45.9344C207.285 46.3001 206.094 46.483 204.658 46.483C202.947 46.483 201.42 46.1019 200.075 45.3401C198.731 44.5783 197.677 43.4962 196.914 42.0944C196.15 40.6926 195.768 39.0315 195.768 37.1115V23.5344H200.488V36.7458C200.488 38.6962 200.977 40.144 201.954 41.0887C202.932 42.003 204.291 42.4601 206.033 42.4601C207.957 42.4601 209.5 41.8201 210.661 40.5401C211.852 39.2601 212.448 37.4012 212.448 34.963V23.5344H217.168V50.6887C217.168 52.0601 216.755 53.1572 215.931 53.9801C215.136 54.803 214.036 55.2144 212.631 55.2144H198.609ZM235.687 46.0715V14.0715H255.483V18.5515H240.636V27.7858H254.292V32.2658H240.636V46.0715H235.687ZM270.799 46.7115C268.538 46.7115 266.522 46.2544 264.75 45.3401C263.009 44.3955 261.634 43.0544 260.626 41.3172C259.618 39.5801 259.114 37.523 259.114 35.1458V34.4601C259.114 32.083 259.618 30.0411 260.626 28.3344C261.634 26.5972 263.009 25.2563 264.75 24.3115C266.522 23.3668 268.538 22.8944 270.799 22.8944C273.06 22.8944 275.076 23.3668 276.848 24.3115C278.619 25.2563 280.009 26.5972 281.018 28.3344C282.026 30.0411 282.53 32.083 282.53 34.4601V35.1458C282.53 37.523 282.026 39.5801 281.018 41.3172C280.009 43.0544 278.619 44.3955 276.848 45.3401C275.076 46.2544 273.06 46.7115 270.799 46.7115ZM270.799 42.5058C272.876 42.5058 274.556 41.8505 275.839 40.5401C277.153 39.199 277.81 37.3555 277.81 35.0087V34.5972C277.81 32.2506 277.168 30.422 275.885 29.1115C274.602 27.7706 272.907 27.1001 270.799 27.1001C268.752 27.1001 267.072 27.7706 265.758 29.1115C264.475 30.422 263.833 32.2506 263.833 34.5972V35.0087C263.833 37.3555 264.475 39.199 265.758 40.5401C267.072 41.8505 268.752 42.5058 270.799 42.5058ZM288.406 46.0715V23.5344H293.034V26.1858H293.767C294.134 25.2411 294.714 24.5554 295.509 24.1287C296.333 23.6715 297.342 23.443 298.533 23.443H301.237V27.6944H298.35C296.822 27.6944 295.57 28.1211 294.592 28.9744C293.614 29.7972 293.126 31.0772 293.126 32.8144V46.0715H288.406ZM304.222 34.9172V34.2315C304.222 31.8544 304.695 29.8277 305.642 28.1515C306.62 26.4754 307.903 25.1801 309.491 24.2658C311.08 23.3515 312.821 22.8944 314.715 22.8944C316.915 22.8944 318.595 23.3058 319.756 24.1287C320.947 24.9515 321.818 25.8354 322.368 26.7801H323.101V23.5344H327.684V50.6887C327.684 52.0601 327.271 53.1572 326.446 53.9801C325.652 54.803 324.552 55.2144 323.147 55.2144H307.933V51.1001H321.681C322.567 51.1001 323.009 50.643 323.009 49.7287V42.5515H322.276C321.94 43.1001 321.467 43.664 320.856 44.243C320.245 44.8219 319.435 45.2944 318.427 45.6601C317.449 46.0258 316.212 46.2087 314.715 46.2087C312.821 46.2087 311.065 45.7669 309.446 44.883C307.857 43.9687 306.589 42.6733 305.642 40.9972C304.695 39.2905 304.222 37.264 304.222 34.9172ZM315.998 42.0944C318.045 42.0944 319.726 41.4544 321.039 40.1744C322.383 38.864 323.055 37.0658 323.055 34.7801V34.3687C323.055 32.022 322.398 30.2239 321.085 28.9744C319.771 27.6944 318.076 27.0544 315.998 27.0544C313.982 27.0544 312.302 27.6944 310.958 28.9744C309.644 30.2239 308.987 32.022 308.987 34.3687V34.7801C308.987 37.0658 309.644 38.864 310.958 40.1744C312.302 41.4544 313.982 42.0944 315.998 42.0944ZM344.989 46.7115C342.698 46.7115 340.697 46.239 338.986 45.2944C337.275 44.319 335.931 42.963 334.953 41.2258C334.007 39.4583 333.533 37.4162 333.533 35.1001V34.5515C333.533 32.2049 334.007 30.163 334.953 28.4258C335.9 26.6582 337.214 25.302 338.894 24.3572C340.605 23.382 342.576 22.8944 344.806 22.8944C346.975 22.8944 348.868 23.382 350.488 24.3572C352.137 25.302 353.42 26.6277 354.337 28.3344C355.253 30.0411 355.712 32.0372 355.712 34.323V36.1058H338.344C338.406 38.0869 339.062 39.6715 340.315 40.8601C341.598 42.0183 343.186 42.5972 345.081 42.5972C346.852 42.5972 348.181 42.2012 349.067 41.4087C349.984 40.6162 350.686 39.7019 351.175 38.6658L355.07 40.6772C354.642 41.5305 354.016 42.4297 353.191 43.3744C352.397 44.319 351.343 45.1115 350.03 45.7515C348.716 46.3915 347.036 46.7115 344.989 46.7115ZM338.39 32.4944H350.9C350.778 30.7877 350.167 29.462 349.067 28.5172C347.967 27.542 346.531 27.0544 344.76 27.0544C342.988 27.0544 341.537 27.542 340.406 28.5172C339.307 29.462 338.635 30.7877 338.39 32.4944Z" fill="#C9B500"/>
<path d="M32.1128 0H27.5792V11.3068H32.1128V0Z" fill="#C9B500"/>
<path d="M52.8176 10.2234L49.6067 7.03052L41.6054 15.0386L44.8164 18.2315L52.8176 10.2234Z" fill="#C9B500"/>
<path d="M60.1171 32.2033L60.1354 27.6807L48.8015 27.6352L48.7833 32.1579L60.1171 32.2033Z" fill="#C9B500"/>
<path d="M49.5758 53.0258L52.7799 49.8262L44.7616 41.8351L41.5575 45.0348L49.5758 53.0258Z" fill="#C9B500"/>
<path d="M27.5794 59.9254L32.1128 59.9614L32.203 48.655L27.6696 48.619L27.5794 59.9254Z" fill="#C9B500"/>
<path d="M7.07604 49.61L10.3088 52.7808L18.2549 44.7181L15.0221 41.5473L7.07604 49.61Z" fill="#C9B500"/>
<path d="M0.408584 27.513L0.377686 32.0356L11.7113 32.1127L11.7422 27.5901L0.408584 27.513Z" fill="#C9B500"/>
<path d="M10.5801 7.30972L7.38428 10.5176L15.4232 18.4881L18.619 15.2802L10.5801 7.30972Z" fill="#C9B500"/>
<path d="M10.9561 19.7867C10.9561 22.8049 8.5035 25.2517 5.47804 25.2517C2.45261 25.2517 0 22.8049 0 19.7867C0 16.7685 2.45261 14.3218 5.47804 14.3218C8.5035 14.3218 10.9561 16.7685 10.9561 19.7867ZM3.73677 19.7867C3.73677 20.7461 4.51639 21.5238 5.47804 21.5238C6.43974 21.5238 7.21932 20.7461 7.21932 19.7867C7.21932 18.8273 6.43974 18.0496 5.47804 18.0496C4.51639 18.0496 3.73677 18.8273 3.73677 19.7867Z" fill="#C9B500"/>
<path d="M10.9561 40.1389C10.9561 43.1571 8.5035 45.6039 5.47804 45.6039C2.45261 45.6039 0 43.1571 0 40.1389C0 37.1207 2.45261 34.6741 5.47804 34.6741C8.5035 34.6741 10.9561 37.1207 10.9561 40.1389ZM3.73677 40.1389C3.73677 41.0986 4.51639 41.8761 5.47804 41.8761C6.43974 41.8761 7.21932 41.0986 7.21932 40.1389C7.21932 39.1796 6.43974 38.4018 5.47804 38.4018C4.51639 38.4018 3.73677 39.1796 3.73677 40.1389Z" fill="#C9B500"/>
<path d="M25.3124 54.4611C25.3124 57.4793 22.8598 59.9261 19.8344 59.9261C16.8089 59.9261 14.3563 57.4793 14.3563 54.4611C14.3563 51.4429 16.8089 48.9961 19.8344 48.9961C22.8598 48.9961 25.3124 51.4429 25.3124 54.4611ZM18.0931 54.4611C18.0931 55.4204 18.8727 56.1982 19.8344 56.1982C20.7961 56.1982 21.5756 55.4204 21.5756 54.4611C21.5756 53.5015 20.7961 52.724 19.8344 52.724C18.8727 52.724 18.0931 53.5015 18.0931 54.4611Z" fill="#C9B500"/>
<path d="M45.7133 54.4611C45.7133 57.4793 43.2607 59.9261 40.2352 59.9261C37.2098 59.9261 34.7571 57.4793 34.7571 54.4611C34.7571 51.4429 37.2098 48.9961 40.2352 48.9961C43.2607 48.9961 45.7133 51.4429 45.7133 54.4611ZM38.4939 54.4611C38.4939 55.4204 39.2733 56.1982 40.2352 56.1982C41.1968 56.1982 41.9765 55.4204 41.9765 54.4611C41.9765 53.5015 41.1968 52.724 40.2352 52.724C39.2733 52.724 38.4939 53.5015 38.4939 54.4611Z" fill="#C9B500"/>
<path d="M60.0699 40.1389C60.0699 43.1571 57.6172 45.6039 54.5918 45.6039C51.5663 45.6039 49.1136 43.1571 49.1136 40.1389C49.1136 37.1207 51.5663 34.6741 54.5918 34.6741C57.6172 34.6741 60.0699 37.1207 60.0699 40.1389ZM52.8505 40.1389C52.8505 41.0986 53.6302 41.8761 54.5918 41.8761C55.5534 41.8761 56.3331 41.0986 56.3331 40.1389C56.3331 39.1796 55.5534 38.4018 54.5918 38.4018C53.6302 38.4018 52.8505 39.1796 52.8505 40.1389Z" fill="#C9B500"/>
<path d="M39.2909 29.9629C39.2909 35.0626 35.1469 39.1967 30.035 39.1967C24.923 39.1967 20.7789 35.0626 20.7789 29.9629C20.7789 24.8631 24.923 20.729 30.035 20.729C35.1469 20.729 39.2909 24.8631 39.2909 29.9629ZM24.8005 29.9629C24.8005 32.8468 27.1441 35.1848 30.035 35.1848C32.9259 35.1848 35.2694 32.8468 35.2694 29.9629C35.2694 27.0789 32.9259 24.7409 30.035 24.7409C27.1441 24.7409 24.8005 27.0789 24.8005 29.9629Z" fill="#C9B500"/>
<path d="M59.6918 19.7867C59.6918 22.8049 57.2392 25.2517 54.2137 25.2517C51.1883 25.2517 48.7356 22.8049 48.7356 19.7867C48.7356 16.7685 51.1883 14.3218 54.2137 14.3218C57.2392 14.3218 59.6918 16.7685 59.6918 19.7867ZM52.4724 19.7867C52.4724 20.7461 53.2521 21.5238 54.2137 21.5238C55.1757 21.5238 55.955 20.7461 55.955 19.7867C55.955 18.8273 55.1757 18.0496 54.2137 18.0496C53.2521 18.0496 52.4724 18.8273 52.4724 19.7867Z" fill="#C9B500"/>
<path d="M45.3356 5.46493C45.3356 8.48314 42.883 10.9299 39.8575 10.9299C36.8321 10.9299 34.3794 8.48314 34.3794 5.46493C34.3794 2.44674 36.8321 0 39.8575 0C42.883 0 45.3356 2.44674 45.3356 5.46493ZM38.1162 5.46493C38.1162 6.42432 38.8959 7.20204 39.8575 7.20204C40.8191 7.20204 41.5988 6.42432 41.5988 5.46493C41.5988 4.50557 40.8191 3.72782 39.8575 3.72782C38.8959 3.72782 38.1162 4.50557 38.1162 5.46493Z" fill="#C9B500"/>
<path d="M25.3124 5.46493C25.3124 8.48314 22.8598 10.9299 19.8344 10.9299C16.8089 10.9299 14.3563 8.48314 14.3563 5.46493C14.3563 2.44674 16.8089 0 19.8344 0C22.8598 0 25.3124 2.44674 25.3124 5.46493ZM18.0931 5.46493C18.0931 6.42432 18.8727 7.20204 19.8344 7.20204C20.7961 7.20204 21.5756 6.42432 21.5756 5.46493C21.5756 4.50557 20.7961 3.72782 19.8344 3.72782C18.8727 3.72782 18.0931 4.50557 18.0931 5.46493Z" fill="#C9B500"/>
</svg>
