<svg width="28" height="26" viewBox="0 0 28 26" fill="none" xmlns="http://www.w3.org/2000/svg">
<path d="M21.5 8.17773C21.5 6.27408 20.7098 4.4484 19.3033 3.10231C17.8968 1.75622 15.9891 1 14 1C12.0109 1 10.1032 1.75622 8.6967 3.10231C7.29018 4.4484 6.5 6.27408 6.5 8.17773C6.5 16.5518 2.75 18.9443 2.75 18.9443H25.25C25.25 18.9443 21.5 16.5518 21.5 8.17773Z" fill="white"/>
<path d="M16.1625 23.7295C15.9427 24.0921 15.6273 24.393 15.2478 24.6022C14.8683 24.8114 14.438 24.9215 14 24.9215C13.562 24.9215 13.1317 24.8114 12.7522 24.6022C12.3727 24.393 12.0573 24.0921 11.8375 23.7295M1.5 8.17773C1.5 5.5459 2.375 3.03369 4 1M26.5 8.17773C26.5 5.58932 25.6228 3.07073 24 1M21.5 8.17773C21.5 6.27408 20.7098 4.4484 19.3033 3.10231C17.8968 1.75622 15.9891 1 14 1C12.0109 1 10.1032 1.75622 8.6967 3.10231C7.29018 4.4484 6.5 6.27408 6.5 8.17773C6.5 16.5518 2.75 18.9443 2.75 18.9443H25.25C25.25 18.9443 21.5 16.5518 21.5 8.17773Z" stroke="black" stroke-width="2" stroke-linecap="round" stroke-linejoin="round"/>
</svg>
