<svg width="30" height="29" viewBox="0 0 30 29" fill="none" xmlns="http://www.w3.org/2000/svg">
<path fill-rule="evenodd" clip-rule="evenodd" d="M21.4882 18.5164L29.558 26.2394C29.8416 26.5111 30.0009 26.8794 30.0007 27.2635C30.0006 27.6475 29.8411 28.0157 29.5572 28.2872C29.2734 28.5586 28.8885 28.7111 28.4872 28.7109C28.0859 28.7108 27.7012 28.5581 27.4175 28.2865L19.3477 20.5634C16.9353 22.3516 13.9017 23.1931 10.8641 22.9167C7.82641 22.6403 5.01286 21.2668 2.99578 19.0756C0.978694 16.8845 -0.0903957 14.0401 0.00599436 11.1214C0.102384 8.20257 1.35701 5.42855 3.51465 3.36363C5.67228 1.2987 8.57085 0.097985 11.6207 0.00573679C14.6705 -0.0865115 17.6425 0.936641 19.9321 2.86705C22.2217 4.79746 23.6568 7.49012 23.9456 10.3973C24.2344 13.3044 23.3551 16.2076 21.4867 18.5164H21.4882ZM12.0009 20.0969C14.3878 20.0969 16.6769 19.1894 18.3647 17.5741C20.0525 15.9589 21.0007 13.7681 21.0007 11.4838C21.0007 9.19943 20.0525 7.00865 18.3647 5.39338C16.6769 3.77811 14.3878 2.87067 12.0009 2.87067C9.61396 2.87067 7.32483 3.77811 5.63703 5.39338C3.94924 7.00865 3.00105 9.19943 3.00105 11.4838C3.00105 13.7681 3.94924 15.9589 5.63703 17.5741C7.32483 19.1894 9.61396 20.0969 12.0009 20.0969Z" fill="black"/>
<path d="M12.0009 20.0969C14.3878 20.0969 16.6769 19.1894 18.3647 17.5741C20.0525 15.9589 21.0007 13.7681 21.0007 11.4838C21.0007 9.19943 20.0525 7.00865 18.3647 5.39338C16.6769 3.77811 14.3878 2.87067 12.0009 2.87067C9.61396 2.87067 7.32483 3.77811 5.63703 5.39338C3.94924 7.00865 3.00105 9.19943 3.00105 11.4838C3.00105 13.7681 3.94924 15.9589 5.63703 17.5741C7.32483 19.1894 9.61396 20.0969 12.0009 20.0969Z" fill="white"/>
</svg>
