<svg width="20" height="20" viewBox="0 0 20 20" fill="none" xmlns="http://www.w3.org/2000/svg">
<path opacity="0.2" d="M8.75 13.125C8.75 13.6195 8.60338 14.1028 8.32868 14.5139C8.05397 14.925 7.66353 15.2455 7.20671 15.4347C6.74989 15.6239 6.24723 15.6734 5.76228 15.577C5.27732 15.4805 4.83187 15.2424 4.48223 14.8928C4.1326 14.5431 3.8945 14.0977 3.79804 13.6127C3.70157 13.1278 3.75108 12.6251 3.9403 12.1683C4.12952 11.7115 4.44995 11.321 4.86108 11.0463C5.2722 10.7716 5.75555 10.625 6.25 10.625C6.91304 10.625 7.54893 10.8884 8.01777 11.3572C8.48661 11.8261 8.75 12.462 8.75 13.125ZM6.25 2.5C5.75555 2.5 5.2722 2.64662 4.86108 2.92133C4.44995 3.19603 4.12952 3.58648 3.9403 4.04329C3.75108 4.50011 3.70157 5.00277 3.79804 5.48773C3.8945 5.97268 4.1326 6.41814 4.48223 6.76777C4.83187 7.1174 5.27732 7.3555 5.76228 7.45196C6.24723 7.54843 6.74989 7.49892 7.20671 7.3097C7.66353 7.12048 8.05397 6.80005 8.32868 6.38893C8.60338 5.9778 8.75 5.49445 8.75 5C8.75 4.33696 8.48661 3.70107 8.01777 3.23223C7.54893 2.76339 6.91304 2.5 6.25 2.5ZM13.75 10.625C13.2555 10.625 12.7722 10.7716 12.3611 11.0463C11.95 11.321 11.6295 11.7115 11.4403 12.1683C11.2511 12.6251 11.2016 13.1278 11.298 13.6127C11.3945 14.0977 11.6326 14.5431 11.9822 14.8928C12.3319 15.2424 12.7773 15.4805 13.2623 15.577C13.7472 15.6734 14.2499 15.6239 14.7067 15.4347C15.1635 15.2455 15.554 14.925 15.8287 14.5139C16.1034 14.1028 16.25 13.6195 16.25 13.125C16.25 12.462 15.9866 11.8261 15.5178 11.3572C15.0489 10.8884 14.413 10.625 13.75 10.625ZM13.75 7.5C14.2445 7.5 14.7278 7.35338 15.1389 7.07868C15.55 6.80397 15.8705 6.41353 16.0597 5.95671C16.2489 5.49989 16.2984 4.99723 16.202 4.51228C16.1055 4.02732 15.8674 3.58187 15.5178 3.23223C15.1681 2.8826 14.7227 2.6445 14.2377 2.54804C13.7528 2.45157 13.2501 2.50108 12.7933 2.6903C12.3365 2.87952 11.946 3.19995 11.6713 3.61108C11.3966 4.0222 11.25 4.50555 11.25 5C11.25 5.66304 11.5134 6.29893 11.9822 6.76777C12.4511 7.23661 13.087 7.5 13.75 7.5Z" fill="black"/>
<path d="M2.125 9.87502C2.23235 9.95774 2.36449 10.0018 2.5 10C2.59703 10 2.69273 9.97743 2.77951 9.93403C2.8663 9.89064 2.94179 9.82764 3 9.75002C3.37795 9.2465 3.86776 8.83771 4.43076 8.55593C4.99377 8.27414 5.61456 8.12707 6.24415 8.12631C6.87373 8.12555 7.49488 8.27113 8.05856 8.55156C8.62224 8.83199 9.11303 9.2396 9.49219 9.7422L9.53906 9.79689H9.54688C9.55469 9.81252 9.57031 9.82033 9.58594 9.83595H9.60156L9.625 9.85939H9.63282C9.65437 9.87767 9.67796 9.8934 9.70313 9.90627L9.72656 9.92189L9.79688 9.95314H9.82031L9.88281 9.96877H10.1406L10.2734 9.92189H10.2891L10.3281 9.89845L10.3516 9.88283L10.375 9.8672C10.3771 9.8672 10.3791 9.86638 10.3805 9.86492C10.382 9.86345 10.3828 9.86146 10.3828 9.85939L10.4063 9.84377L10.4453 9.8047H10.4531L10.5 9.75783C10.8784 9.25328 11.3691 8.84377 11.9332 8.56172C12.4973 8.27967 13.1193 8.13283 13.75 8.13283C14.3807 8.13283 15.0027 8.27967 15.5668 8.56172C16.1309 8.84377 16.6216 9.25328 17 9.75783C17.1007 9.88872 17.2486 9.97506 17.4121 9.99841C17.5755 10.0218 17.7417 9.98029 17.875 9.88283C17.9407 9.83358 17.996 9.77189 18.0378 9.70126C18.0796 9.63064 18.1071 9.55247 18.1187 9.47122C18.1303 9.38997 18.1258 9.30722 18.1054 9.22772C18.0851 9.14821 18.0492 9.07349 18 9.00783C17.4479 8.26249 16.7097 7.67519 15.8594 7.3047C16.3241 6.87952 16.6495 6.32382 16.7929 5.71046C16.9363 5.09711 16.891 4.45473 16.663 3.86757C16.4349 3.28041 16.0347 2.77588 15.5149 2.42013C14.9951 2.06438 14.3799 1.87402 13.75 1.87402C13.1201 1.87402 12.5049 2.06438 11.9851 2.42013C11.4653 2.77588 11.0651 3.28041 10.837 3.86757C10.609 4.45473 10.5637 5.09711 10.7071 5.71046C10.8505 6.32382 11.1759 6.87952 11.6406 7.3047C11.0285 7.57089 10.472 7.94988 10 8.42189C9.52805 7.94988 8.97149 7.57089 8.35938 7.3047C8.82413 6.87952 9.14954 6.32382 9.29294 5.71046C9.43634 5.09711 9.39104 4.45473 9.16298 3.86757C8.93492 3.28041 8.53474 2.77588 8.01491 2.42013C7.49509 2.06438 6.8799 1.87402 6.25 1.87402C5.62011 1.87402 5.00491 2.06438 4.48509 2.42013C3.96527 2.77588 3.56509 3.28041 3.33702 3.86757C3.10896 4.45473 3.06366 5.09711 3.20706 5.71046C3.35047 6.32382 3.67588 6.87952 4.14063 7.3047C3.29118 7.67301 2.55312 8.25754 2 9.00002C1.95076 9.06568 1.91493 9.14039 1.89456 9.2199C1.87419 9.29941 1.86968 9.38215 1.88128 9.4634C1.89289 9.54466 1.92039 9.62283 1.96221 9.69345C2.00402 9.76407 2.05934 9.82577 2.125 9.87502ZM11.875 5.00002C11.875 4.62918 11.985 4.26666 12.191 3.95832C12.397 3.64998 12.6899 3.40966 13.0325 3.26774C13.3751 3.12583 13.7521 3.0887 14.1158 3.16104C14.4795 3.23339 14.8136 3.41197 15.0758 3.67419C15.3381 3.93641 15.5166 4.27051 15.589 4.63422C15.6613 4.99794 15.6242 5.37494 15.4823 5.71755C15.3404 6.06016 15.1 6.35299 14.7917 6.55902C14.4834 6.76505 14.1208 6.87502 13.75 6.87502C13.2534 6.87296 12.7776 6.67476 12.4264 6.32357C12.0753 5.97238 11.8771 5.49666 11.875 5.00002ZM4.375 5.00002C4.375 4.62918 4.48497 4.26666 4.691 3.95832C4.89702 3.64998 5.18986 3.40966 5.53247 3.26774C5.87508 3.12583 6.25208 3.0887 6.6158 3.16104C6.97951 3.23339 7.3136 3.41197 7.57583 3.67419C7.83805 3.93641 8.01663 4.27051 8.08897 4.63422C8.16132 4.99794 8.12419 5.37494 7.98228 5.71755C7.84036 6.06016 7.60004 6.35299 7.2917 6.55902C6.98335 6.76505 6.62084 6.87502 6.25 6.87502C5.75336 6.87296 5.27764 6.67476 4.92645 6.32357C4.57526 5.97238 4.37706 5.49666 4.375 5.00002ZM15.8594 15.4297C16.3241 15.0045 16.6495 14.4488 16.7929 13.8355C16.9363 13.2221 16.891 12.5797 16.663 11.9926C16.4349 11.4054 16.0347 10.9009 15.5149 10.5451C14.9951 10.1894 14.3799 9.99902 13.75 9.99902C13.1201 9.99902 12.5049 10.1894 11.9851 10.5451C11.4653 10.9009 11.0651 11.4054 10.837 11.9926C10.609 12.5797 10.5637 13.2221 10.7071 13.8355C10.8505 14.4488 11.1759 15.0045 11.6406 15.4297C11.0285 15.6959 10.472 16.0749 10 16.5469C9.52805 16.0749 8.97149 15.6959 8.35938 15.4297C8.82413 15.0045 9.14954 14.4488 9.29294 13.8355C9.43634 13.2221 9.39104 12.5797 9.16298 11.9926C8.93492 11.4054 8.53474 10.9009 8.01491 10.5451C7.49509 10.1894 6.8799 9.99902 6.25 9.99902C5.62011 9.99902 5.00491 10.1894 4.48509 10.5451C3.96527 10.9009 3.56509 11.4054 3.33702 11.9926C3.10896 12.5797 3.06366 13.2221 3.20706 13.8355C3.35047 14.4488 3.67588 15.0045 4.14063 15.4297C3.29118 15.798 2.55312 16.3825 2 17.125C1.90055 17.2576 1.85784 17.4243 1.88128 17.5884C1.90473 17.7525 1.99239 17.9006 2.125 18C2.23235 18.0827 2.36449 18.1268 2.5 18.125C2.59703 18.125 2.69273 18.1024 2.77951 18.059C2.8663 18.0156 2.94179 17.9526 3 17.875C3.37795 17.3715 3.86776 16.9627 4.43076 16.6809C4.99377 16.3991 5.61456 16.2521 6.24415 16.2513C6.87373 16.2506 7.49488 16.3961 8.05856 16.6766C8.62224 16.957 9.11303 17.3646 9.49219 17.8672L9.53906 17.9219H9.54688L9.58594 17.961H9.60156L9.625 17.9844H9.63282L9.70313 18.0313L9.72656 18.0469L9.79688 18.0781H9.82031L9.88281 18.0938H10.1484L10.2031 18.0703H10.2109L10.2734 18.0469H10.2891L10.3281 18.0235L10.3516 18.0078L10.375 17.9922H10.3828L10.4063 17.9766L10.4453 17.9375H10.4531L10.5 17.8906C10.8784 17.3861 11.3691 16.9766 11.9332 16.6945C12.4973 16.4125 13.1193 16.2656 13.75 16.2656C14.3807 16.2656 15.0027 16.4125 15.5668 16.6945C16.1309 16.9766 16.6216 17.3861 17 17.8906C17.1007 18.0215 17.2486 18.1079 17.4121 18.1312C17.5755 18.1546 17.7417 18.1131 17.875 18.0156C17.9407 17.9664 17.996 17.9047 18.0378 17.8341C18.0796 17.7635 18.1071 17.6853 18.1187 17.604C18.1303 17.5228 18.1258 17.44 18.1054 17.3605C18.0851 17.281 18.0492 17.2063 18 17.1406C17.4489 16.3924 16.7106 15.8024 15.8594 15.4297ZM4.375 13.125C4.375 12.7542 4.48497 12.3917 4.691 12.0833C4.89702 11.775 5.18986 11.5347 5.53247 11.3927C5.87508 11.2508 6.25208 11.2137 6.6158 11.286C6.97951 11.3584 7.3136 11.537 7.57583 11.7992C7.83805 12.0614 8.01663 12.3955 8.08897 12.7592C8.16132 13.1229 8.12419 13.4999 7.98228 13.8425C7.84036 14.1852 7.60004 14.478 7.2917 14.684C6.98335 14.89 6.62084 15 6.25 15C5.75336 14.998 5.27764 14.7998 4.92645 14.4486C4.57526 14.0974 4.37706 13.6217 4.375 13.125ZM11.875 13.125C11.875 12.7542 11.985 12.3917 12.191 12.0833C12.397 11.775 12.6899 11.5347 13.0325 11.3927C13.3751 11.2508 13.7521 11.2137 14.1158 11.286C14.4795 11.3584 14.8136 11.537 15.0758 11.7992C15.3381 12.0614 15.5166 12.3955 15.589 12.7592C15.6613 13.1229 15.6242 13.4999 15.4823 13.8425C15.3404 14.1852 15.1 14.478 14.7917 14.684C14.4834 14.89 14.1208 15 13.75 15C13.2534 14.998 12.7776 14.7998 12.4264 14.4486C12.0753 14.0974 11.8771 13.6217 11.875 13.125Z" fill="black"/>
</svg>
